<svg xmlns="http://www.w3.org/2000/svg" width="512" height="512" viewBox="0 0 512 512"><path fill="#FFDD01" d="M512 472c0 22.1-17.9 40-40 40H40c-22.1 0-40-17.9-40-40V40C0 17.9 17.9 0 40 0h432c22.1 0 40 17.9 40 40v432z"/><path fill-rule="evenodd" clip-rule="evenodd" fill="#231F20" d="M179.5 290.9C161 220.3 207.4 155.8 273.3 151c27.5-2 48.2 5 64.3 15.1 27.1 17 47.9 42.3 52.3 78.7 2.4 19.9-.7 40.6-8.8 58 29.9-27.4 47.2-73.4 40.3-130.4 9.8-2.5 26.1-1.7 31.5 2.5 10.6 91.1-28.5 143.5-83.8 177.7-31.1 19.2-72.5 31.6-119.7 29-62.8-3.5-110.8-35-144.3-75-25.3-30.2-43-67.2-47.2-118.4-.7-7.8-.6-18.3 0-26.5s.3-19.5 3.2-23.3c4.5-6 34.7-7.6 46.6-8.2 9.4-.4 18.7-.1 27.1.6 8.1.7 16.8 2 22 5.7-3.3 27.6-9.3 61.5-4.4 89.5 4.4 25 13.8 48 27.1 64.9zm122.8-109.6c-28.8-8.1-60.9 3.9-75 20.2 4.4.4 8.5 0 13.9 0v95.8c5.3 0 9.9-.1 14.5-.1 0-24.1.3-41 .3-66 5.5 0 11.2-.2 16.7-.2v-29.6h17V231h17.6c0 22-.2 44.7-.2 66.7 4.4 0 8.8.1 14 .1 0-32 .2-67 .6-96.4h13.9c-6.8-8.8-19-16.1-33.3-20.1zm-77.5 131c0-35.7-.6-72-.6-107.7-29.1 22.8-27.7 85.8.6 107.7zm113.4-1.3c13.1-11.7 24.5-33.8 22-61.1-1.6-18.2-10.4-34.3-20.2-45.4-.8 0-.9-.8-1.9-.6.1 35.7.1 71.4.1 107.1zm-66.8-63.6v50.4h18.9v-50.4h-18.9zm47.2 80.8c4.2-2.1 11.1-8 13.4-10.8H230.6c14.5 20 66.4 21.8 88 10.8z"/></svg>